<svg width="200" height="200" viewBox="0 0 200 200" fill="none" xmlns="http://www.w3.org/2000/svg">
<path fill-rule="evenodd" clip-rule="evenodd" d="M163.857 70.1725C157.095 60.9861 148.554 53.2458 138.739 47.4094C128.925 41.573 118.037 37.7591 106.719 36.1933L128.217 0.022728L185.442 33.8502L163.857 70.1725Z" fill="#40C381"/>
<path fill-rule="evenodd" clip-rule="evenodd" d="M15.3479 121.393C15.3808 105.85 20.0428 90.6675 28.742 77.7717C37.4413 64.8759 49.7857 54.8484 64.2086 48.962C78.6315 43.0757 94.4827 41.5957 109.75 44.7099C125.018 47.8242 139.014 55.3923 149.962 66.4538C160.91 77.5152 168.316 91.5713 171.24 106.838C174.165 122.105 172.476 137.894 166.388 152.202C160.301 166.51 150.088 178.692 137.047 187.201C124.006 195.71 108.724 200.163 93.1415 199.994C72.402 199.775 52.5893 191.391 38.0187 176.669C23.448 161.947 15.2996 142.08 15.3479 121.393ZM153.528 122.002C153.622 110.254 150.22 98.7424 143.753 88.9228C137.287 79.1032 128.046 71.4166 117.2 66.8352C106.353 62.2538 94.3883 60.9834 82.8179 63.1845C71.2474 65.3856 60.5913 70.9594 52.197 79.2011C43.8027 87.4427 38.0474 97.9821 35.6588 109.486C33.2701 120.99 34.3554 132.943 38.7776 143.832C43.1997 154.721 50.76 164.057 60.5023 170.66C70.2447 177.264 81.7314 180.837 93.5101 180.929C109.285 180.99 124.445 174.83 135.687 163.793C146.929 152.756 153.34 137.734 153.528 122.002Z" fill="#111F2C"/>
<path fill-rule="evenodd" clip-rule="evenodd" d="M112.187 121.065C114.358 119.983 116.176 118.309 117.431 116.236C118.685 114.164 119.324 111.779 119.272 109.359C119.328 107.372 118.878 105.403 117.965 103.636C117.053 101.869 115.707 100.36 114.053 99.2509C110.574 96.7687 105.582 95.5277 99.0794 95.5277H73.017V148.731H100.604C107.563 148.731 112.859 147.478 116.492 144.97C118.249 143.795 119.673 142.188 120.628 140.304C121.582 138.421 122.034 136.324 121.941 134.216C122.038 131.23 121.126 128.299 119.35 125.894C117.53 123.575 115.023 121.884 112.187 121.065ZM97.5513 104.8C99.9645 104.646 102.371 105.187 104.485 106.358C105.256 106.861 105.88 107.559 106.295 108.379C106.71 109.2 106.9 110.115 106.848 111.033C106.898 111.955 106.706 112.874 106.292 113.7C105.878 114.526 105.255 115.231 104.485 115.744C102.38 116.942 99.9694 117.497 97.5513 117.34H85.2822V104.8H97.5513ZM85.2822 139.458V126.309H99.6857C106.239 126.309 109.516 128.513 109.516 132.921C109.581 133.889 109.386 134.857 108.952 135.725C108.518 136.593 107.86 137.331 107.045 137.861C104.792 139.068 102.244 139.621 99.6914 139.458H85.2822Z" fill="#111F2C"/>
</svg>
